<?xml version="1.0" encoding="UTF-8"?>
<svg id="a" data-name="Layer 1" xmlns="http://www.w3.org/2000/svg" viewBox="0 0 223 177">
  <path d="M139,177H0C0,118,0,59,0,0c74.333,0,148.667,0,223,0,0,59,0,118,0,177-27.833,0-55.667,0-84,0M152.891,152.027c1.831-.003,3.708-.273,5.485.035,11.468,1.992,22.694,2.013,32.061-6.036,6.017-5.171,11.897-10.737,16.695-17.001,2.907-3.795,4.378-9.136,5.186-14,1.788-10.762.861-21.069-7.923-29.207-5.127-4.75-9.989-9.793-14.853-14.817-2.132-2.202-3.646-4.391-.838-7.628,1.656-1.909,3.033-3.326,5.336-4.76,7.558-4.708,16.139-8.199,21.838-15.576,3.586-4.642,3.05-11.294-1.68-14.314-5.034-3.215-10.246-6.263-15.692-8.684-4.198-1.867-8.454-4.513-13.791-3.822-3.431-2.065-6.699-5.492-10.327-5.928-9.173-1.102-18.558-1.596-27.765-.967-10.991.751-20.585,6.539-29.961,11.732-7.896,4.374-14.975,10.316-22.098,15.966-8.693,6.895-11.984,19.425-9.121,30.051,1.893,7.026,8.391,9.146,13.073,12.74,6.992,5.367,15.363,8.913,23.028,13.436,3.429,2.023,6.359,4.95,9.884,6.74,6.463,3.282,13.229,5.964,19.803,9.037,1.573.735,3.264,1.75,4.255,3.108,5.055,6.926,7.3,14.47,3.345,22.881-4.869-.263-9.902-2.114-14.209,2.065-3.586,3.48-7.481,6.646-10.989,10.198-.381.385.57,2.844,1.502,3.547.875.661,2.544.271,3.429.993-11.177,3.164-22.647,2.426-33.996,2.042-8.634-.292-17.32-1.378-25.8-3.04-5.487-1.075-10.588-3.999-15.964-5.787-10.92-3.633-22.053-6.682-32.802-10.751-4.411-1.67-6.962-.692-10.022,2.126-4.342,3.998-9.045,7.603-13.508,11.475-.712.618-1.486,1.875-1.311,2.62.203.862,1.302,1.827,2.222,2.156,7.446,2.657,14.853,5.484,22.447,7.643,6.879,1.955,13.921,3.525,20.994,4.559,9.141,1.337,18.365,2.327,27.588,2.814,9.467.5,19.275,1.729,28.395-.08,13.918-2.761,27.393-7.792,40.995-12.053,1.594-.499,2.806-2.219,5.086-3.514Z" style="fill: rgba(0, 0, 0, 0); stroke-width: 0px;"/>
  <path d="M159.65,135.065c3.136-8.463.891-16.007-4.163-22.933-.991-1.358-2.682-2.373-4.255-3.108-6.574-3.073-13.339-5.755-19.803-9.037-3.525-1.79-6.455-4.717-9.884-6.74-7.665-4.523-16.036-8.07-23.028-13.436-4.682-3.593-11.179-5.713-13.073-12.74-2.863-10.625.428-23.155,9.121-30.051,7.122-5.65,14.202-11.592,22.098-15.966,9.375-5.193,18.97-10.982,29.961-11.732,9.207-.629,18.592-.135,27.765.967,3.627.436,6.895,3.863,10.136,6.494-.257,6.797-.323,13.027-.453,19.615-4.708,9.878-19.651,20.984-27.936,20.024,1.289-1.824,1.993-3.512,3.25-4.484,7.119-5.505,8.303-19.287,1.997-24.829-9.748-8.567-28.935-10.049-39.616-2.133-8.307,6.157-18.784,11.79-13.817,25.54,1.556,4.308,2.966,8.381,7.466,10.688,2.778,1.424,5.08,3.747,7.781,5.356,5.265,3.136,10.395,6.738,16.053,8.924,12.512,4.835,24.332,10.795,34.751,19.225,2.535,2.051,5.494,5.281,5.732,8.177,1.05,12.775.85,25.531-10.308,35.122-3.53-.976-6.653-1.959-9.776-2.943Z" style="fill: #669bbc; stroke-width: 0px;"/>
  <path d="M184.134,36.041c.066-6.23.132-12.461.532-18.949,5.385-1.566,9.641,1.08,13.839,2.947,5.446,2.421,10.658,5.469,15.692,8.684,4.729,3.021,5.266,9.672,1.68,14.314-5.699,7.377-14.28,10.869-21.838,15.576-2.303,1.434-3.679,2.851-5.336,4.76-2.808,3.237-1.294,5.426.838,7.628,4.865,5.024,9.726,10.067,14.853,14.817,8.784,8.138,9.711,18.444,7.923,29.207-.808,4.864-2.279,10.206-5.186,14-4.799,6.264-10.678,11.83-16.695,17.001-9.367,8.049-20.593,8.028-32.061,6.036-1.777-.309-3.654-.038-6.371-.027-4.926-.284-8.965-.576-13.005-.868-1.32-.072-2.988.317-3.864-.343-.932-.704-1.883-3.162-1.502-3.547,3.508-3.552,7.403-6.717,10.989-10.198,4.306-4.18,9.339-2.329,14.618-2.039,3.532,1.009,6.655,1.993,10.407,3.317,6.949,1.848,13.287,2.363,19.003-1.353,3.848-2.501,7.215-5.077,6.595-11.084-.659-6.381-2.981-11.603-5.659-17.287-5.626-11.941-15.262-19.729-24.941-27.715-5.788-4.775-9.467-12.851-2.631-16.828,3.597-2.093,7.636-3.434,11.496-5.066,7.166-3.03,14.433-5.838,21.488-9.107,3.881-1.798,4.187-5.458.571-7.932-3.519-2.409-7.601-3.996-11.436-5.943Z" style="fill: #ee6946; stroke-width: 0px;"/>
  <path d="M138.783,151.492c4.257-.033,8.296.259,12.776.613-.949,1.216-2.16,2.936-3.755,3.435-13.602,4.261-27.077,9.292-40.995,12.053-9.12,1.809-18.928.58-28.395.08-9.223-.487-18.448-1.477-27.588-2.814-7.073-1.035-14.115-2.604-20.994-4.559-7.594-2.159-15.002-4.986-22.447-7.643-.921-.329-2.02-1.294-2.222-2.156-.175-.745.598-2.002,1.311-2.62,4.463-3.872,9.166-7.476,13.508-11.475,3.061-2.818,5.612-3.796,10.022-2.126,10.75,4.07,21.882,7.118,32.802,10.751,5.376,1.789,10.477,4.712,15.964,5.787,8.481,1.662,17.166,2.748,25.8,3.04,11.349.384,22.819,1.122,34.213-2.367Z" style="fill: #669bbc; stroke-width: 0px;"/>
  <path d="M184.071,36.398c3.898,1.59,7.98,3.177,11.499,5.586,3.616,2.475,3.31,6.134-.571,7.932-7.055,3.268-14.322,6.077-21.488,9.107-3.86,1.632-7.899,2.973-11.496,5.066-6.836,3.977-3.156,12.053,2.631,16.828,9.679,7.986,19.315,15.774,24.941,27.715,2.678,5.684,5,10.906,5.659,17.287.62,6.008-2.747,8.583-6.595,11.084-5.716,3.716-12.054,3.201-18.596,1.345,10.529-9.931,10.729-22.687,9.679-35.462-.238-2.896-3.197-6.125-5.732-8.177-10.42-8.43-22.239-14.39-34.751-19.225-5.658-2.186-10.789-5.788-16.053-8.924-2.701-1.609-5.003-3.932-7.781-5.356-4.5-2.307-5.91-6.38-7.466-10.688-4.968-13.75,5.509-19.383,13.817-25.54,10.681-7.916,29.867-6.434,39.616,2.133,6.306,5.542,5.122,19.324-1.997,24.829-1.257.972-1.961,2.66-3.25,4.484,8.285.96,23.228-10.145,27.936-20.024Z" style="fill: rgba(0, 0, 0, 0); stroke-width: 0px;"/>
</svg>