<svg version="1.1" id="Layer_1" xmlns="http://www.w3.org/2000/svg" xmlns:xlink="http://www.w3.org/1999/xlink" x="0px" y="0px"
	 width="100%" viewBox="0 0 223 177" enable-background="new 0 0 223 177" xml:space="preserve">
<path fill="#000000" opacity="0" stroke="none" 
	d="
M140.000000,178.000000 
	C93.333336,178.000000 47.166672,178.000000 1.000006,178.000000 
	C1.000004,119.000008 1.000004,60.000011 1.000002,1.000014 
	C75.333321,1.000009 149.666641,1.000009 223.999969,1.000005 
	C223.999985,59.999985 223.999985,118.999969 224.000000,177.999969 
	C196.166672,178.000000 168.333328,178.000000 140.000000,178.000000 
M153.890900,153.026581 
	C155.721802,153.023895 157.599228,152.753372 159.376053,153.061981 
	C170.843903,155.053772 182.069763,155.075073 191.436890,147.025604 
	C197.453781,141.855103 203.333572,136.289032 208.132278,130.024994 
	C211.039200,126.230408 212.510056,120.888565 213.318207,116.024559 
	C215.106384,105.262299 214.179047,94.955666 205.395309,86.817940 
	C200.268143,82.067863 195.406418,77.024818 190.541840,72.000717 
	C188.409561,69.798531 186.895554,67.609634 189.703705,64.372734 
	C191.359940,62.463631 192.736511,61.046993 195.039413,59.612663 
	C202.597641,54.905125 211.178436,51.413383 216.877258,44.036514 
	C220.463242,39.394642 219.926849,32.742947 215.197372,29.722399 
	C210.163498,26.507439 204.951080,23.459248 199.505447,21.038160 
	C195.306961,19.171547 191.050949,16.525358 185.714844,17.216486 
	C182.283356,15.151566 179.015518,11.724817 175.388290,11.288960 
	C166.215012,10.186677 156.829926,9.693056 147.623077,10.322113 
	C136.632141,11.073066 127.037811,16.861145 117.662575,22.054600 
	C109.766937,26.428431 102.687210,32.370811 95.564812,38.020390 
	C86.871735,44.915844 83.581261,57.445881 86.444023,68.071060 
	C88.337158,75.097466 94.834755,77.217293 99.516525,80.810738 
	C106.508453,86.177299 114.879578,89.723907 122.544563,94.247093 
	C125.973541,96.270569 128.903503,99.197151 132.428909,100.987228 
	C138.892273,104.269104 145.657959,106.950760 152.231506,110.024010 
	C153.804520,110.759438 155.495880,111.774506 156.486969,113.132362 
	C161.541946,120.057991 163.786606,127.601875 159.832016,136.013031 
	C154.962692,135.749756 149.929733,133.898590 145.623322,138.078369 
	C142.037491,141.558762 138.142563,144.724274 134.634521,148.276138 
	C134.253891,148.661530 135.204529,151.119858 136.136505,151.823410 
	C137.011932,152.484299 138.680618,152.094406 139.565704,152.816620 
	C128.388672,155.981079 116.918549,155.242844 105.569939,154.859039 
	C96.936073,154.567047 88.250359,153.480911 79.769691,151.819321 
	C74.282616,150.744247 69.181572,147.820450 63.805485,146.031845 
	C52.885014,142.398651 41.752712,139.350204 31.003157,135.280396 
	C26.592539,133.610535 24.041382,134.587967 20.980774,137.406372 
	C16.638763,141.404770 11.935785,145.008957 7.473205,148.880905 
	C6.760951,149.498886 5.987207,150.755920 6.162531,151.500824 
	C6.365366,152.362625 7.464074,153.328049 8.385012,153.656647 
	C15.830691,156.313385 23.238003,159.140671 30.832289,161.299316 
	C37.711048,163.254562 44.753250,164.823959 51.826488,165.858688 
	C60.967293,167.195892 70.191895,168.185883 79.414864,168.673172 
	C88.881477,169.173355 98.690018,170.401947 107.809669,168.593079 
	C121.727402,165.832520 135.202301,160.800934 148.804657,156.540207 
	C150.398865,156.040848 151.610733,154.320877 153.890900,153.026581 
z"/>
<path fill="#669BBC" opacity="1.000000" stroke="none" 
	d="
M160.650452,136.064911 
	C163.786606,127.601875 161.541946,120.057991 156.486969,113.132362 
	C155.495880,111.774506 153.804520,110.759438 152.231506,110.024010 
	C145.657959,106.950760 138.892273,104.269104 132.428909,100.987228 
	C128.903503,99.197151 125.973541,96.270569 122.544563,94.247093 
	C114.879578,89.723907 106.508453,86.177299 99.516525,80.810738 
	C94.834755,77.217293 88.337158,75.097466 86.444023,68.071060 
	C83.581261,57.445881 86.871735,44.915844 95.564812,38.020390 
	C102.687210,32.370811 109.766937,26.428431 117.662575,22.054600 
	C127.037811,16.861145 136.632141,11.073066 147.623077,10.322113 
	C156.829926,9.693056 166.215012,10.186677 175.388290,11.288960 
	C179.015518,11.724817 182.283356,15.151566 185.523895,17.783092 
	C185.266785,24.580076 185.200638,30.810455 185.070831,37.398483 
	C180.362885,47.276691 165.420273,58.382362 157.134842,57.422089 
	C158.424301,55.597729 159.128113,53.909847 160.385330,52.937695 
	C167.504318,47.432945 168.688660,33.650990 162.382217,28.108904 
	C152.633926,19.542135 133.447693,18.059671 122.766556,25.975861 
	C114.459145,32.132797 103.982391,37.765800 108.950035,51.516094 
	C110.506317,55.823822 111.915817,59.897232 116.416122,62.204132 
	C119.193878,63.628036 121.496231,65.950821 124.196869,67.559784 
	C129.461426,70.696266 134.591904,74.297813 140.250320,76.484184 
	C152.762802,81.318954 164.582108,87.279327 175.001801,95.709290 
	C177.537247,97.760559 180.496140,100.990356 180.734131,103.885895 
	C181.784119,116.660820 181.583725,129.417023 170.425995,139.007599 
	C166.895981,138.031967 163.773209,137.048431 160.650452,136.064911 
z"/>
<path fill="#EE6946" opacity="1.000000" stroke="none" 
	d="
M185.134476,37.040833 
	C185.200638,30.810455 185.266785,24.580076 185.666321,18.091419 
	C191.050949,16.525358 195.306961,19.171547 199.505447,21.038160 
	C204.951080,23.459248 210.163498,26.507439 215.197372,29.722399 
	C219.926849,32.742947 220.463242,39.394642 216.877258,44.036514 
	C211.178436,51.413383 202.597641,54.905125 195.039413,59.612663 
	C192.736511,61.046993 191.359940,62.463631 189.703705,64.372734 
	C186.895554,67.609634 188.409561,69.798531 190.541840,72.000717 
	C195.406418,77.024818 200.268143,82.067863 205.395309,86.817940 
	C214.179047,94.955666 215.106384,105.262299 213.318207,116.024559 
	C212.510056,120.888565 211.039200,126.230408 208.132278,130.024994 
	C203.333572,136.289032 197.453781,141.855103 191.436890,147.025604 
	C182.069763,155.075073 170.843903,155.053772 159.376053,153.061981 
	C157.599228,152.753372 155.721802,153.023895 153.004868,153.034668 
	C148.079315,152.750778 144.039795,152.458801 140.000275,152.166840 
	C138.680618,152.094406 137.011932,152.484299 136.136505,151.823410 
	C135.204529,151.119858 134.253891,148.661530 134.634521,148.276138 
	C138.142563,144.724274 142.037491,141.558762 145.623322,138.078369 
	C149.929733,133.898590 154.962692,135.749756 160.241241,136.038971 
	C163.773209,137.048431 166.895981,138.031967 170.647888,139.355682 
	C177.597092,141.204132 183.934692,141.719101 189.651031,138.003113 
	C193.499084,135.501617 196.866196,132.926575 196.246002,126.919060 
	C195.587280,120.538048 193.265030,115.315895 190.587158,109.631973 
	C184.961380,97.690933 175.325607,89.902649 165.646286,81.916954 
	C159.858429,77.141838 156.179016,69.066399 163.014893,65.089119 
	C166.611969,62.996250 170.650894,61.655258 174.510818,60.023262 
	C181.676880,56.993412 188.943985,54.184811 195.998703,50.916431 
	C199.879852,49.118343 200.185959,45.458893 196.570190,42.984074 
	C193.050995,40.575344 188.969223,38.988529 185.134476,37.040833 
z"/>
<path fill="#669BBC" opacity="1.000000" stroke="none" 
	d="
M139.782990,152.491730 
	C144.039795,152.458801 148.079315,152.750778 152.559341,153.104752 
	C151.610733,154.320877 150.398865,156.040848 148.804657,156.540207 
	C135.202301,160.800934 121.727402,165.832520 107.809669,168.593079 
	C98.690018,170.401947 88.881477,169.173355 79.414864,168.673172 
	C70.191895,168.185883 60.967293,167.195892 51.826488,165.858688 
	C44.753250,164.823959 37.711048,163.254562 30.832289,161.299316 
	C23.238003,159.140671 15.830691,156.313385 8.385012,153.656647 
	C7.464074,153.328049 6.365366,152.362625 6.162531,151.500824 
	C5.987207,150.755920 6.760951,149.498886 7.473205,148.880905 
	C11.935785,145.008957 16.638763,141.404770 20.980774,137.406372 
	C24.041382,134.587967 26.592539,133.610535 31.003157,135.280396 
	C41.752712,139.350204 52.885014,142.398651 63.805485,146.031845 
	C69.181572,147.820450 74.282616,150.744247 79.769691,151.819321 
	C88.250359,153.480911 96.936073,154.567047 105.569939,154.859039 
	C116.918549,155.242844 128.388672,155.981079 139.782990,152.491730 
z"/>
<path fill="#000000" opacity="0" stroke="none" 
	d="
M185.070831,37.398483 
	C188.969223,38.988529 193.050995,40.575344 196.570190,42.984074 
	C200.185959,45.458893 199.879852,49.118343 195.998703,50.916431 
	C188.943985,54.184811 181.676880,56.993412 174.510818,60.023262 
	C170.650894,61.655258 166.611969,62.996250 163.014893,65.089119 
	C156.179016,69.066399 159.858429,77.141838 165.646286,81.916954 
	C175.325607,89.902649 184.961380,97.690933 190.587158,109.631973 
	C193.265030,115.315895 195.587280,120.538048 196.246002,126.919060 
	C196.866196,132.926575 193.499084,135.501617 189.651031,138.003113 
	C183.934692,141.719101 177.597092,141.204132 171.055145,139.347809 
	C181.583725,129.417023 181.784119,116.660820 180.734131,103.885895 
	C180.496140,100.990356 177.537247,97.760559 175.001801,95.709290 
	C164.582108,87.279327 152.762802,81.318954 140.250320,76.484184 
	C134.591904,74.297813 129.461426,70.696266 124.196869,67.559784 
	C121.496231,65.950821 119.193878,63.628036 116.416122,62.204132 
	C111.915817,59.897232 110.506317,55.823822 108.950035,51.516094 
	C103.982391,37.765800 114.459145,32.132797 122.766556,25.975861 
	C133.447693,18.059671 152.633926,19.542135 162.382217,28.108904 
	C168.688660,33.650990 167.504318,47.432945 160.385330,52.937695 
	C159.128113,53.909847 158.424301,55.597729 157.134842,57.422089 
	C165.420273,58.382362 180.362885,47.276691 185.070831,37.398483 
z"/>
</svg>